<svg id="eHq2dzI8LF51" xmlns="http://www.w3.org/2000/svg" xmlns:xlink="http://www.w3.org/1999/xlink" viewBox="0 0 300 300" shape-rendering="geometricPrecision" text-rendering="geometricPrecision"><defs><linearGradient id="eHq2dzI8LF52-fill" x1="0.234605" y1="0.242633" x2="0.775887" y2="0.760717" spreadMethod="pad" gradientUnits="objectBoundingBox" gradientTransform="translate(0 0)"><stop id="eHq2dzI8LF52-fill-0" offset="0%" stop-color="#ca9e68"/><stop id="eHq2dzI8LF52-fill-1" offset="100%" stop-color="#845627"/></linearGradient></defs><path d="M206.65145,181.334965c6.832135,3.375644.321515,11.734378.321515,11.734378L192.1834,208.741972v5.786813h26.153172c1.262992,1.330272,2.31864,2.084451,2.31864,2.084451s5.356561,3.185589,13.174238,1.013594c9.410178-4.63357,8.107223-10.715144,8.107223-10.715144s-4.864336,0-6.949051,0c-1.447717,6.515962-7.38337,5.357572-7.38337,5.357572s-5.356561,0-6.225187-6.660769c-1.158171-3.619988-.144773-9.122355-.144773-9.122355s.434319-6.371166,6.514733-6.660769c6.659506-.868798,7.238597,6.660769,7.238597,6.660769s4.965676,0,7.093824,0c.144773-8.398353-6.659506-11.294339-6.659506-11.294339-3.957102-1.737596-8.203738-1.834123-12.73992-.289603-1.378932.362949-2.635077,1.032927-3.768425,2.009945.302457-3.511491-.578862-6.595166-1.732622-7.907977-2.330966-2.652297-6.349869-6.108305-15.352207-4.179367-6.001566,1.285955-9.484615,5.518909-10.449147,12.698841c0,0,6.526691.056264,9.323852.080376.160763-7.313895,5.947978-6.269056,5.947978-6.269056v.000011Zm-2.411342,26.121041c6.055154-6.590536,9.082725-9.885804,9.082725-9.885804.154916-.126164.306053-.254016.453491-.383442-.347809,2.543973-.591934,6.248092.364166,8.85614.033669.482737.101282.954159.197373,1.413118l-10.097755-.000011ZM165.430403,56.831908c0,0,48.308083,29.404914,118.138536,118.138531-57.928499,77.194153-121.86146,121.861455-121.86146,121.861455s-88.692588-69.871494-118.138536-118.138531c32.94656-51.149594,121.86146-121.861455,121.86146-121.861455Zm-48.234634,82.469339h-16.688337l24.707419,79.759998l22.323359-44.648256l22.973556,44.431527l24.707419-79.326518h-15.821412L166.393867,174.99269l-18.20546-36.341651-18.4222,35.761962-12.570438-35.111753ZM165.919435,24.31142c0,0,60.385101,36.756142,147.673175,147.673169-72.410633,96.492686-152.326825,152.326819-152.326825,152.326819s-110.865741-87.339361-147.673175-147.673169C54.775796,112.701249,165.919435,24.31142,165.919435,24.31142ZM28.580799,176.406772c33.126702,54.300423,132.905873,132.905867,132.905873,132.905867s71.924565-50.250711,137.094131-137.094125C220.021522,72.393181,165.67493,39.312647,165.67493,39.312647s-100.029258,79.550828-137.094131,137.094125Z" transform="translate(-13.463015-24.906579)" fill="url(#eHq2dzI8LF52-fill)" stroke-width="0.6"/></svg>
